<svg width="699" height="161" viewBox="0 0 699 161" fill="none" xmlns="http://www.w3.org/2000/svg">
<path d="M208.887 33.693H216.827V40.0324H221.373V33.693H229.378V37.407H233.668V30.6834H221.373V29.915H231.107V26.5532H207.158V29.915H216.827V30.6834H204.789V37.407H208.887V33.693ZM222.302 39.9684H228.961V37.5351H222.302V39.9684ZM222.302 34.3974V36.7987H228.225V34.3974H222.302ZM215.963 34.3974H209.879V36.7987H215.963V34.3974ZM209.303 39.9684H215.963V37.5351H209.303V39.9684ZM212.281 47.4604H216.571V48.4209H212.281V47.4604ZM216.571 43.8104V44.8029H212.281V43.8104H216.571ZM225.824 44.8029H221.021V43.8104H225.824V44.8029ZM221.021 48.4209V47.4604H225.824V48.4209H221.021ZM223.262 52.455C221.598 52.455 221.117 52.327 221.053 51.4625H230.434V40.7688H207.83V52.7432H212.281V51.4625H216.571C216.667 54.9203 218.076 55.9449 222.814 55.9449H229.154C232.932 55.9449 234.18 54.8883 234.692 51.0143C233.508 50.7901 231.779 50.2138 230.85 49.5735C230.626 52.0068 230.306 52.455 228.769 52.455H223.262Z" fill="white"/>
<path d="M248.908 26.4572H238.951V29.915H248.908V26.4572ZM250.125 30.8435H237.286V34.4614H250.125V30.8435ZM248.972 39.8403H238.855V43.2981H248.972V39.8403ZM260.402 43.4582C259.794 44.6749 259.025 45.7635 258.097 46.724C257.072 45.7314 256.24 44.6429 255.6 43.4582H260.402ZM244.938 50.6941H242.633V47.9726H244.938V50.6941ZM263.38 39.1359L262.579 39.296H252.718C255.536 36.9908 256.144 33.4369 256.176 30.4593H258.641V33.2768C258.641 36.9908 259.506 38.1754 262.419 38.1754H264.116C266.453 38.1754 267.51 36.9908 267.894 32.8606C266.742 32.5724 264.949 31.9001 264.148 31.2277C264.084 33.8531 263.956 34.2693 263.636 34.2693H263.284C263.028 34.2693 262.996 34.1733 262.996 33.2128V26.3931H251.79V30.2032C251.79 32.2843 251.533 34.6856 248.972 36.5425V35.422H238.855V38.8798H248.972V36.8947C249.837 37.439 251.117 38.5276 251.854 39.296H250.541V43.4582H255.472L251.469 44.7389C252.366 46.4678 253.454 48.0687 254.671 49.4454C253.006 50.47 251.053 51.2384 248.908 51.7827V44.3547H238.727V55.4646H242.633V54.312H248.908V52.0068C249.741 53.0313 250.765 54.7923 251.213 55.9129C253.839 55.1124 256.176 54.0239 258.225 52.6471C260.178 54.0559 262.387 55.1445 264.949 55.9129C265.589 54.7282 266.934 52.8392 267.958 51.9107C265.685 51.3664 263.604 50.534 261.779 49.5095C263.892 47.1082 265.461 44.0666 266.421 40.2245L263.38 39.1359Z" fill="white"/>
<path d="M280.861 28.09C279.228 27.3537 276.123 26.3611 274.041 25.8809L272.024 29.0185C274.202 29.6589 277.275 30.8115 278.748 31.5799L280.861 28.09ZM279.58 46.788H292.259V47.7165H279.58V46.788ZM279.58 43.3622H292.259V44.2587H279.58V43.3622ZM279.58 39.9364H292.259V40.8328H279.58V39.9364ZM285.247 37.2469C287.521 36.5105 289.025 35.582 290.05 34.4294C290.914 35.518 292.195 36.4785 294.084 37.2469H285.247ZM296.966 50.3739V38.1114C297.542 38.2395 298.15 38.3675 298.791 38.4636C299.207 37.311 300.199 35.55 301.064 34.6215C294.66 33.9812 292.835 32.5724 292.131 30.7475H294.821C294.532 31.2597 294.212 31.772 293.924 32.1562L297.51 33.1808C298.502 31.9321 299.623 29.947 300.423 28.1541L297.382 27.4177L296.71 27.5458H288.065C288.289 27.0975 288.545 26.6493 288.769 26.201L284.703 25.5287C283.839 27.3857 282.302 29.4668 279.997 31.0356C281.085 31.4518 282.654 32.4123 283.486 33.2128C284.415 32.4444 285.215 31.6119 285.92 30.7475H287.617C286.912 32.6685 285.247 33.9172 280.381 34.6856L280.061 31.8681C276.635 32.5724 273.113 33.3088 270.712 33.693L272.441 37.7272C274.842 37.0868 277.755 36.3184 280.477 35.518L280.381 34.8136C280.957 35.422 281.597 36.4145 282.046 37.2469H275.098V50.3739H279.036C276.859 51.3344 273.753 52.1989 270.904 52.6791C271.928 53.4796 273.529 55.1445 274.362 56.0729C277.659 55.1445 281.854 53.4796 284.511 51.6866L281.597 50.3739H290.146L287.104 52.0708C290.21 53.3195 293.412 54.9523 295.077 56.0409L300.584 54.0239C298.599 52.9993 295.237 51.5906 292.227 50.3739H296.966Z" fill="white"/>
<path d="M318.513 41.6333C317.841 40.9289 314.959 38.2395 313.679 37.2149V36.4145H317.553V31.9961H313.679V25.5287H308.972V31.9961H304.266V36.4145H308.46C307.435 39.9364 305.61 43.8104 303.433 46.2757C304.201 47.5564 305.322 49.5415 305.77 50.9822C306.987 49.5095 308.044 47.5244 308.972 45.2832V55.9449H313.679V42.4657C314.511 43.5543 315.343 44.7069 315.888 45.6034L318.513 41.6333ZM334.169 31.9961H331.256V25.5607H326.293V31.9961H318.289V36.4145H324.917C322.611 40.8328 318.897 45.2192 315.023 47.5884C316.208 48.5489 317.617 50.1818 318.417 51.3985C321.235 49.2853 324.02 46.1477 326.293 42.7539V50.4059C326.293 50.9502 326.069 51.1423 325.493 51.1423C324.917 51.1423 322.996 51.1423 321.427 51.0783C322.067 52.359 322.771 54.4401 322.963 55.7528C325.781 55.7528 327.862 55.6247 329.335 54.8563C330.776 54.1199 331.256 52.9033 331.256 50.4379V36.4145H334.169V31.9961Z" fill="white"/>
<path d="M373.345 52.9033H379.076V43.8104H387.208V39.0399H379.076V33.8211H388.553V29.0506H373.345V52.9033Z" fill="white"/>
<path d="M398.305 40.9929C398.913 38.6237 399.554 35.8382 400.13 33.3408H400.258C400.898 35.7741 401.507 38.6237 402.147 40.9929L402.659 43.01H397.793L398.305 40.9929ZM389.5 52.9033H395.327L396.704 47.4283H403.748L405.125 52.9033H411.144L403.748 29.0506H396.896L389.5 52.9033Z" fill="white"/>
<path d="M437.883 45.3793C437.531 46.1156 437.083 46.788 436.602 47.4283C436.41 46.788 436.218 46.1156 436.058 45.3793H437.883ZM423.315 41.8254C422.515 40.4166 421.266 38.3675 420.69 37.471V36.2224H423.283V32.5724C424.052 33.3088 424.852 34.0772 425.428 34.7816C424.82 35.7101 424.212 36.6066 423.636 37.375L422.707 37.439L423.315 40.8008C425.044 40.6087 426.901 40.3846 428.822 40.1285C428.854 40.4486 428.886 40.7368 428.886 40.9929L431.288 40.1285C431.352 40.7048 431.416 41.2811 431.48 41.8254H423.315ZM427.253 37.0868L427.926 36.2224C428.022 36.4785 428.086 36.7347 428.182 37.0228L427.253 37.0868ZM428.246 35.7741C429.078 34.6215 429.943 33.3729 430.743 32.1562C430.807 33.7891 430.871 35.3899 430.999 36.9268C430.807 36.3184 430.583 35.6781 430.359 35.1018L428.246 35.7741ZM434.906 36.8307C434.809 35.454 434.745 34.0452 434.681 32.6045C435.45 33.2768 436.218 34.0452 436.795 34.7496C436.314 35.486 435.802 36.1904 435.322 36.7987L434.906 36.8307ZM439.036 36.4785C439.292 36.1583 439.548 35.8062 439.804 35.454C439.932 35.7421 440.06 36.0623 440.156 36.3825L439.036 36.4785ZM435.45 41.8254C435.354 41.2491 435.29 40.6727 435.226 40.0964C436.09 39.9684 436.987 39.8403 437.915 39.7122L436.41 41.0249C436.698 41.2491 437.019 41.5372 437.339 41.8254H435.45ZM439.1 45.3793H443.07V41.8254H440.765L441.309 41.3451C440.893 40.8008 440.092 40.0964 439.324 39.5201L440.925 39.264C441.021 39.7122 441.085 40.0964 441.117 40.4486L443.838 39.3601C443.678 38.0794 443.038 36.0623 442.333 34.4935L439.836 35.422C440.957 33.8851 442.077 32.2202 443.102 30.7154L439.964 29.2106C439.58 30.0431 439.068 30.9716 438.523 31.9321C438.363 31.772 438.203 31.5799 438.011 31.4198C438.812 30.1712 439.74 28.4743 440.701 26.9054L437.243 25.6568C436.923 26.8094 436.378 28.2822 435.834 29.5628L435.482 29.2747L434.649 30.5554C434.617 28.9225 434.649 27.2576 434.681 25.5607H430.647C430.647 27.1295 430.647 28.6984 430.679 30.2352L428.566 29.2106C428.182 30.0431 427.702 31.0036 427.157 31.9641C426.997 31.804 426.837 31.6119 426.677 31.4518C427.446 30.1712 428.342 28.4743 429.271 26.9374L425.845 25.6568C425.525 26.8094 425.012 28.2822 424.468 29.5628L424.084 29.2747L422.419 31.804L422.643 31.9961H420.69V25.5287H416.56V31.9961H413.454V36.2224H416.272C415.599 39.7763 414.255 43.8745 412.654 46.2757C413.262 47.3323 414.158 49.0612 414.543 50.2458C415.279 49.0292 415.983 47.4604 416.56 45.6994V55.9449H420.69V43.042C421.17 44.2266 421.618 45.4433 421.907 46.3077L423.315 44.2266V45.3793H425.172C424.852 48.2928 424.116 51.0143 421.33 52.8392C422.259 53.5116 423.379 54.9524 423.892 55.9129C426.101 54.4081 427.414 52.455 428.182 50.2458C428.95 50.9182 429.687 51.6226 430.103 52.1669L432.536 49.0612C431.8 48.2608 430.391 47.1402 429.11 46.2437L429.206 45.3793H432.056C432.44 47.2683 432.92 48.9652 433.497 50.4379C432.024 51.4625 430.359 52.327 428.47 52.9353C429.238 53.6717 430.391 55.0804 430.871 55.9129C432.44 55.3366 433.945 54.6002 435.29 53.7037C436.442 55.1445 437.851 55.9449 439.58 55.9449C442.269 55.9449 443.326 55.0484 443.998 51.3344C443.102 50.9182 441.853 50.1178 441.053 49.2533C440.893 51.5906 440.605 52.1028 439.9 52.1028C439.356 52.1028 438.844 51.8147 438.363 51.2384C439.772 49.8616 440.957 48.2608 441.885 46.4358L439.1 45.3793Z" fill="white"/>
<path d="M466.506 51.3024V48.709H469.228V51.3024H466.506ZM456.037 51.3024H453.315V48.709H456.037V51.3024ZM455.653 32.7005H452.931V30.2672H455.653V32.7005ZM466.987 30.2672H469.708V32.7005H466.987V30.2672ZM476.24 41.7293V37.6952H462.632C462.92 37.2469 463.145 36.7667 463.401 36.2864H474.158V26.6813H462.792V35.9662L460.103 35.0377V26.6813H448.737V36.2864H458.054C457.734 36.7667 457.413 37.2469 457.061 37.6952H446.816V41.7293H452.707C450.626 43.1701 448.225 44.3227 445.567 45.1551C446.464 45.9556 447.776 47.7485 448.321 48.7731C448.641 48.645 448.993 48.5169 449.313 48.4209V56.0089H453.315V55.0804H456.037V56.0089H460.263V44.931H455.941C457.285 43.9705 458.534 42.9139 459.655 41.7293H463.401C464.361 42.9139 465.45 43.9705 466.666 44.931H462.472V56.0089H466.506V55.0804H469.228V56.0089H473.486V48.581C473.838 48.709 474.158 48.8051 474.511 48.9011C475.151 47.8126 476.432 46.0836 477.424 45.2192C474.447 44.4828 471.725 43.2661 469.644 41.7293H476.24Z" fill="white"/>
<path d="M529.51 32.3483V36.7667C529.51 40.4486 530.374 41.6653 534.408 41.6653H537.77C540.62 41.6653 541.804 40.7048 542.285 37.1509C541.068 36.8947 539.179 36.2224 538.315 35.582C538.186 37.439 538.026 37.7592 537.29 37.7592H535.145C534.28 37.7592 534.12 37.6631 534.12 36.7347V32.3483H537.482V35.3259H542.317V28.1541H530.694V25.5287H525.892V28.1541H514.558V35.8382H519.136V32.3483H522.498C522.05 35.6781 521.185 37.6952 514.078 38.8478C515.006 39.7763 516.159 41.6333 516.543 42.7859C525.124 40.9609 526.724 37.5031 527.333 32.3483H529.51ZM530.694 50.9502V47.0762H539.787V42.946H517.728V47.0762H525.892V50.9502H514.334V55.1445H542.445V50.9502H530.694Z" fill="white"/>
<path d="M556.404 26.4572H548.016V29.915H556.404V26.4572ZM557.301 30.8435H546.479V34.4614H557.301V30.8435ZM556.5 35.422H547.824V38.8798H556.5V35.422ZM547.824 43.2981H556.5V39.8403H547.824V43.2981ZM563.192 37.375V40.7048H571.004V37.375H568.827V35.7421H570.908V32.4124H568.827V30.6834H565.273V32.4124H563.256V35.7421H565.273V37.375H563.192ZM567.674 45.1551V47.3003H566.458V45.1551H567.674ZM570.94 50.534V41.9214H563.256V51.5906H566.458V50.534H570.94ZM552.754 50.6621H551.281V47.9406H552.754V50.6621ZM576.031 26.5852H558.325V38.8798C558.325 43.2021 558.197 48.8691 556.436 52.9033V44.3547H547.696V55.4646H551.281V54.248H556.436V53.7357C557.461 54.28 559.03 55.4006 559.702 56.0729C562.135 51.5265 562.519 44.0025 562.519 38.8798V30.4913H571.74V50.8862C571.74 51.3344 571.612 51.4625 571.196 51.4625C570.748 51.4625 569.403 51.4945 568.282 51.3985C568.859 52.5831 569.403 54.6962 569.531 55.9129C571.772 55.9129 573.341 55.8168 574.526 55.0484C575.71 54.312 576.031 53.0313 576.031 50.9502V26.5852Z" fill="white"/>
<path fill-rule="evenodd" clip-rule="evenodd" d="M169.3 76.9865C167.833 77.1436 164.299 77.1436 163.252 77.1436C160.358 77.1436 159.027 77.1436 158 77.1436C158 77.6595 158 81.271 158 82.3028C159.027 82.3028 160.492 82.3029 163.734 82.3029C166.501 82.3029 168.273 82.3028 169.3 82.3028C169.3 82.8187 169.3 84.9682 169.3 85.3984C171.355 85.3984 170.585 85.3984 174.038 85.3984C177.228 85.3984 178.545 85.3984 179.573 85.3984C179.573 84.8825 179.573 82.8187 179.573 82.3028C180.6 82.3028 183.321 82.3029 187.47 82.3029C191.55 82.3029 193.954 82.3028 194.981 82.3028C194.981 82.8187 194.981 84.9936 194.981 85.3984C196.008 85.3984 196.263 85.3984 199.687 85.3984C202.008 85.3984 203.713 85.3984 204.226 85.3984C204.226 84.8825 204.226 82.6722 204.226 82.3028C205.253 82.3028 205.623 82.3029 209.96 82.3029C213.168 82.3029 214.499 82.3028 215.526 82.3028C215.526 81.7869 215.526 78.1178 215.526 77.1436C214.499 77.1436 215.27 77.1436 210.442 77.1436C206.795 77.1436 205.253 77.1436 204.226 77.1436C204.226 76.6276 204.226 74.5639 204.226 74.0481C203.199 74.048 201.541 74.048 199.687 74.048C197.833 74.048 196.008 74.0479 194.981 74.048C194.981 74.5639 194.981 76.6276 194.981 77.1436C193.954 77.1436 192.352 77.1436 186.878 77.1436C183.173 77.1436 180.599 77.1436 179.573 77.1436C179.572 76.6276 179.573 74.5127 179.573 74.0481C178.921 73.9399 176.892 74.048 174.252 74.048C171.783 74.048 170.327 74.048 169.3 74.048C169.3 74.7883 169.428 76.3665 169.3 76.9865ZM303.869 77.1435C302.328 77.1435 300.955 77.1436 293.199 77.1436C287.505 77.1436 284.351 77.1436 283.324 77.1436C283.324 78.1754 283.324 81.271 283.324 82.3028C284.351 82.3028 286.55 82.3029 289.965 82.3029C293.606 82.3029 295.137 82.3027 296.165 82.3027C296.165 82.8186 297.002 86.4635 297.192 87.462C294.624 87.462 297.411 87.4621 290.615 87.4621C280.176 87.4621 280.326 87.1103 280.326 111.534V131.832H285.439H290.553L290.832 113L291.112 94.1692L314.739 93.6532L338.366 93.1373L338.282 87.462C332.564 87.462 338.282 87.462 329.55 87.462L320.394 87.3816L322.05 84.8422C322.639 83.9391 323.148 82.6831 323.9 82.3027C325.441 82.3027 326.613 82.3029 329.752 82.3029C335.516 82.3029 332.632 82.3027 335.798 82.3029V77.1436H325.525C317.079 77.1436 316.71 77.1434 315.169 77.1434C315.169 76.6856 315.169 74.5638 315.169 74.0479C314.655 74.0479 312.314 74.048 309.713 74.048C306.971 74.048 304.896 74.0479 303.869 74.0479C303.869 74.5639 304.001 76.7985 303.869 77.1435ZM344.959 74.0477C344.959 74.5637 345.651 76.7061 346.164 78.5046C346.995 81.4141 347.527 83.3344 347.527 84.3663C347.013 84.3663 343.067 84.3663 341.877 84.3663C341.877 85.9141 341.597 87.9151 341.877 90.3585C346.708 90.6756 342.771 90.0572 348.614 90.3585C354.136 90.6433 356.772 90.5577 356.772 92.6211C356.772 94.6845 353.076 94.6851 349.084 94.6851H341.825L341.961 100.36C349.375 100.538 365.504 100.36 365.504 100.36C365.484 100.563 365.504 102.94 365.504 102.94C357.656 102.939 349.809 102.94 341.961 102.94V105.52V108.099C349.809 108.099 357.656 108.099 365.504 108.099C365.504 109.131 365.504 108.615 365.504 110.163C357.816 110.3 350.162 110.306 342.475 110.163L342.15 113.516L341.825 116.354H349.084C353.076 116.354 358.313 116.354 358.313 116.354C358.313 116.765 353.235 120.996 349.437 124.841L342.53 131.832H349.742C356.801 131.832 352.15 131.832 356.772 131.832C358.979 129.562 366.081 122.029 366.531 122.029C366.531 122.029 366.615 125.434 366.615 127.704V131.832H371.238H375.861V126.97V122.107L385.535 131.832C393.753 131.832 385.845 131.832 392.075 131.832C395.587 131.832 398.376 131.741 398.376 131.741L382.967 116.354C382.967 116.354 389.138 116.354 392.81 116.354H399.487V113.258V110.163C391.766 110.163 375.776 110.163 375.776 110.163C375.776 110.163 375.776 108.343 375.776 108.099C383.68 108.099 391.584 108.099 399.487 108.099V105.52V102.94C391.584 102.94 383.68 102.938 375.776 102.94C375.776 102.731 375.776 100.876 375.776 100.36C375.776 100.36 391.641 100.36 399.403 100.36L399.487 97.7807V94.6851H392.874C386.894 94.6851 386.276 94.487 386.416 92.6214C386.552 90.7929 387.306 90.5577 393.029 90.5577H399.487C399.487 88.4919 399.403 86.4286 399.403 84.3663C397.097 84.3663 395.808 84.3663 394.781 84.3663C395.245 81.9548 396.297 74.4738 396.321 74.0476C395.808 74.0477 394.148 74.048 391.389 74.048C385.974 74.048 390.672 74.0476 386.049 74.0479C386.04 75.8764 385.022 83.3344 384.508 84.3663C384.178 84.3663 383.694 84.6003 383.481 84.3661C381.86 81.1099 382.024 77.577 382.024 74.048H376.888H371.752V79.2073C371.752 82.0449 371.289 84.3666 370.724 84.3666C370.159 84.3666 369.697 82.0449 369.697 79.2073V74.048H364.561H359.425V79.2073C359.425 82.0449 359.392 84.3666 358.827 84.3666C358.516 84.3666 358.313 84.3664 357.8 84.3664C357.286 82.3027 355.742 75.8935 355.231 74.0477C351.122 74.0477 355.029 74.048 350.816 74.048C348.394 74.048 345.473 74.0477 344.959 74.0477ZM410.787 80.7551V87.4621H403.596C403.512 87.4618 403.596 90.8033 403.596 93.6532C403.512 93.653 407.393 93.653 410.703 93.653C410.703 93.653 410.787 93.8472 410.787 97.1089C410.787 99.0829 409.227 103.52 407.149 107.451C403.765 113.857 403.596 113.774 403.596 113.774L404.11 130.149L407.192 124.025L410.577 117.386L410.703 125.124L410.881 131.832H415.971H421.06V122.855C421.06 115.872 420.975 114.806 420.975 114.806C420.975 114.806 421.858 114.87 423.823 115.655C424.571 114.29 425.084 111.194 425.598 106.551C421.06 102.023 421.06 102.023 421.06 102.023C421.06 102.023 421.06 98.2574 421.06 96.7096C421.06 95.9068 420.975 93.653 420.975 93.653C420.975 93.653 424.178 93.6531 425.084 93.653C425.084 93.653 425.084 89.2696 425.084 87.4618C425.084 87.4618 422.586 87.4621 421.06 87.4621C421.06 87.4621 421.06 86.7739 421.06 80.7551V74.048H415.923H410.787V80.7551ZM427.051 81.3267C426.863 85.3303 427.149 89.045 427.685 89.5815C428.223 90.1181 435.811 90.5574 438.523 90.5574C438.523 93.6532 438.523 93.3241 438.523 95.7169C433.302 95.7169 432.325 95.7169 426.709 95.7169C426.709 97.7807 426.709 98.4235 426.709 100.876C430.734 100.876 433.85 100.876 439.466 100.876C439.466 100.876 440.384 102.539 432.819 110.218L427.115 116.007L426.912 123.921C426.801 128.273 426.941 131.792 427.223 131.741C427.506 131.69 430.164 128.909 433.13 125.559L438.523 119.469V125.65V131.832H443.659H448.795L448.815 125.383L448.834 118.934L454.978 125.28L461.122 131.626V123.901V116.175L454.858 109.622C451.413 106.019 448.609 101.48 448.98 100.876C449.738 100.876 457.964 100.876 461.038 100.876C461.038 97.2644 461.038 98.1521 461.038 95.7169C457.443 95.7167 454.677 95.7167 448.711 95.7167C448.711 94.1689 448.711 92.6211 448.711 90.5577C452.712 90.5572 456.603 90.4075 460.609 90.0418L460.909 82.0449L461.209 74.048H456.029H450.85V79.2073C450.85 80.8899 450.502 83.423 450.252 84.3663C449.738 84.3663 449.455 84.3663 449.225 84.3663C449.225 84.3663 448.795 82.0449 448.795 79.2073V74.048H443.659H438.523V79.2073C438.523 80.8899 438.175 83.423 437.925 84.3663C437.411 84.3663 437.128 84.3666 436.898 84.3666C436.333 84.3666 436.468 82.0449 436.468 79.2073V74.048H431.93H427.392L427.051 81.3267ZM488.894 76.3697C488.915 77.6461 489.592 79.8522 490.399 81.271C491.206 82.6898 491.835 84.9885 491.856 85.3981C491.856 85.3981 485.827 85.4686 478.355 85.6265L464.772 85.9143V88.494V91.0736L479.659 91.3574L494.545 91.6422L496.894 98.2213C498.185 101.839 501.492 110.534 504.242 117.542L509.241 130.284L515.616 130.595C521.409 130.877 521.706 130.949 521.646 130.8C519.497 125.456 507.74 93.193 507.264 91.6422C507.264 91.6422 511.912 91.5892 516.51 91.5892C516.51 91.5892 517.342 88.6866 517.023 85.9141C517.023 85.9141 511.084 85.686 505.21 85.3981C505.21 85.3981 504.631 84.9929 503.593 82.7744L502.405 80.2391H514.539C514.539 80.2391 514.539 80.234 514.539 77.1436V74.048H501.699C489.056 74.048 488.859 74.0841 488.894 76.3697ZM543.029 81.7529C539.008 86.1517 534.136 90.3028 531.472 91.5978L526.866 93.8369V99.4203C526.866 102.491 527.059 105.004 527.295 105.004C527.53 105.004 534.995 102.5 537.568 101.392V102.424H571.981C572.183 101.814 571.981 101.392 571.981 101.392L583.365 104.995L583.281 93.653C583.281 93.653 583.31 93.9411 579.233 92.0951C576.961 91.0664 571.64 86.584 567.41 82.1357C563.059 77.5622 559.654 74.0975 559.654 74.0975C559.654 74.0477 556.855 74.0771 554.849 74.0976C552.865 74.1179 550.409 74.0976 550.409 74.0976C550.409 74.0976 546.932 77.4827 543.029 81.7529ZM589.529 77.1436V80.2391H600.315H611.101V77.1436V74.048H600.315H589.529V77.1436ZM623.428 87.4621L615.126 87.4618C615.126 87.4618 615.126 90.7297 615.126 93.653C615.126 93.653 615.438 93.6532 619.319 93.6532H623.428V109.647V125.641L613.071 125.64C613.071 125.64 613.155 125.71 613.155 128.736V131.832H629.078H645V128.736C645 125.672 645 125.641 645 125.641H633.7V109.647V93.6532H637.809C641.672 93.6532 641.674 93.653 641.674 93.653C641.674 90.8927 641.674 87.2661 641.674 87.2661H633.7L633.603 74.048H628.515H623.428V87.4621ZM221.773 81.271V85.3984H232.069H242.364L242.085 104.23L241.804 123.061L230.762 123.354L219.719 123.647V127.739V131.832H248.482H277.245V127.704V123.577H265.431H253.618V104.488V85.3984H263.89H274.163V81.271V77.1436H247.968H221.773V81.271ZM313.628 82.3027C313.628 83.3345 312.601 86.4301 312.548 87.2599C311.573 87.462 307.063 87.1445 305.923 87.2599C305.41 84.8823 305.319 84.5274 304.896 82.3027C306.951 82.3027 304.421 82.3029 309.357 82.3029C314.433 82.3029 311.06 82.3027 313.628 82.3027ZM181.627 87.4621C180.599 87.4621 179.77 87.4621 170.411 87.4621H159.111V90.0418V92.6214H170.411C177.259 92.6214 181.113 92.6214 181.627 92.6214C181.627 92.8169 181.627 93.6532 181.627 94.6851C180.086 94.6851 174.85 94.6851 169.897 94.6851H158.084V97.7807V100.876H165.36C168.613 100.876 171.354 100.876 172.381 100.876C172.381 101.392 172.335 101.792 172.212 102.166C171.943 102.982 169.273 103.567 164.935 103.761C161.32 103.922 159.027 103.972 158.084 103.972C157.999 104.488 158.084 105.682 158.084 107.115V110.163H167.329C172.807 110.163 176.574 110.583 176.574 111.195C176.574 111.807 172.807 112.227 167.329 112.227H158.084V115.322V118.418H165.263C170.007 118.418 173.056 118.924 174.252 119.91C175.246 120.731 177.216 122.341 178.629 123.487L181.197 125.572L169.64 125.607L158.084 125.641V128.821V132L171.181 131.449C178.385 131.147 184.972 130.914 185.819 130.934C186.667 130.954 193.717 131.189 201.485 131.457L215.61 131.943V128.792V125.641H206.673C201.757 125.641 198.175 125.256 198.711 124.786C199.249 124.316 203.27 122.396 207.648 120.52C214.936 117.396 215.61 116.857 215.61 114.151V111.195H200.746C188.24 111.195 187.277 111.711 186.249 110.679C186.249 110.163 186.249 108.615 186.249 108.099C185.694 107.905 184.693 108.048 182.825 107.905L178.632 107.583L180.67 104.23C182.478 101.255 183.224 100.876 187.283 100.876C189.644 100.876 191.386 100.876 191.899 100.876C191.899 101.392 192.026 102.898 192.178 104.746L192.496 108.615L204.053 108.907L215.61 109.199V106.07V102.94H208.932C205.166 102.94 203.199 102.94 202.172 102.94C202.172 102.705 202.172 101.392 202.172 100.876C203.199 100.876 206.689 100.876 208.932 100.876H215.61V97.7807V94.6851H203.796C196.605 94.6851 192.413 94.6851 191.899 94.6851C191.899 94.4655 191.899 93.1373 191.899 92.6214C193.954 92.6214 198.838 92.6214 203.283 92.6214H214.582V90.0418V87.4621H203.283C193.923 87.4621 193.44 87.4621 191.899 87.4621C191.899 87.0253 191.899 84.8825 191.899 84.3665C190.872 84.3665 189.277 84.3666 186.847 84.3666C184.763 84.3666 182.654 84.3665 181.627 84.3665C181.627 84.9134 181.627 86.9207 181.627 87.4621ZM560.179 90.4834L565.165 95.5684L555.258 95.9006C549.81 96.0833 545.354 96.0471 545.355 95.8191C545.358 95.2155 553.989 85.6275 554.641 85.5037C554.944 85.4459 557.436 87.6871 560.179 90.4834ZM587.474 90.5577C587.474 93.5387 587.474 93.653 587.474 93.653C590.016 93.653 597.149 93.653 597.149 93.653C597.139 94.0791 594.612 98.6619 592.079 102.892C587.672 110.254 587.474 110.45 587.474 110.679C587.474 115.103 587.673 126.673 587.918 126.673C588.161 126.673 590.358 123.145 592.797 118.833L597.233 110.994L597.526 121.412L597.818 131.832H602.919H608.019V121.403C608.019 112.542 607.935 110.994 607.935 110.994C608.782 111.338 612.737 112.914 613.585 113.258C613.585 113.258 614.183 112.372 614.183 107.205C614.183 101.276 614.183 101.392 614.183 101.392C612.338 100.433 607.935 96.7485 607.935 96.7485C607.935 95.1729 607.935 93.653 607.935 93.653C610.674 93.653 614.098 93.653 614.098 93.653L614.183 87.4621H600.828H587.474V90.5577ZM376.804 90.5574C376.29 92.1052 375.776 93.653 375.776 94.6848C374.749 94.6848 372.821 94.6851 370.614 94.6851C366.273 94.6851 368.586 94.6848 366.531 94.6848C366.531 94.0347 365.162 90.8662 365.504 90.5574C366.531 90.5574 368.053 90.5577 371.238 90.5577C374.345 90.5577 376.804 90.5574 376.804 90.5574ZM293.681 101.851V108.099H301.899C309.98 108.099 310.117 108.143 310.117 110.679C310.117 113.201 309.945 113.258 302.412 113.258H294.708V116.354V119.45H302.412H310.117V122.545V125.641H301.899H293.681V128.736V131.832H315.65H337.619L338.071 128.736L338.524 125.641H329.457H320.389V122.545V119.45H328.607H336.825V116.354V113.258H328.607C320.526 113.258 320.389 113.215 320.389 110.679C320.389 108.128 320.489 108.099 329.172 108.099H337.955L337.647 102.166L337.339 96.2329H327.58C327.579 99.0705 327.58 98.7919 327.58 101.908C324.414 101.908 323.554 101.908 320.305 101.908C320.305 99.3283 320.305 98.7558 320.305 96.2329C317.737 96.2327 314.655 96.2327 310.032 96.2327C310.032 99.3283 310.032 98.7917 310.032 101.908C309.005 101.908 306.545 101.908 303.869 101.908C303.869 100.876 303.869 98.8123 303.869 96.2327C299.76 96.2327 303.355 96.2327 298.733 96.2327H293.681V101.851ZM466.688 106.035C466.688 106.035 466.669 106.035 470.368 106.035H474.477V115.838V125.641H469.518C464.593 125.641 464.633 125.64 464.633 125.64L465.465 131.832H479.213H492.961L497.33 127.994C499.733 125.884 501.86 124.058 502.058 123.936C502.684 123.551 500.032 116.354 499.265 116.354C498.861 116.354 496.49 118.444 493.994 120.997C491.232 123.825 486.182 125.641 484.749 125.641C484.665 125.64 484.749 125.369 484.749 115.838V106.035L493.91 106.035C493.91 106.035 493.994 105.825 493.994 103.456V100.876H480.126H466.259L466.688 106.035ZM526.866 110.163C526.866 113.189 526.866 113.258 526.866 113.258C529.691 113.258 537.055 113.258 537.055 113.258C537.055 113.536 535.018 117.593 532.426 121.655C529.834 125.717 527.587 130.033 527.295 130.8C527.295 130.8 531.594 131.832 555.006 131.832C570.604 131.832 583.365 131.578 583.365 131.267C583.365 130.957 581.474 127.242 579.164 123.013L574.961 115.322H568.891C565.551 115.322 562.82 115.63 562.82 116.005C562.82 116.381 563.995 118.703 565.431 121.165L568.043 125.641H556.7C550.461 125.641 545.357 125.365 545.357 125.028C545.357 124.691 546.851 121.905 548.679 118.837L552 113.258H567.683H583.365V110.163V107.067H555.116H526.866V110.163ZM198.887 116.985C198.541 117.333 196.023 118.657 193.292 119.928C188.719 122.056 188.136 122.113 185.933 120.644C184.571 119.735 181.487 119.083 178.773 119.131C175.038 119.195 174.785 119.11 177.601 118.742C179.579 118.483 181.635 117.839 182.173 117.313C182.71 116.785 186.831 116.354 191.333 116.354C195.833 116.354 199.233 116.639 198.887 116.985Z" fill="white"/>
<path fill-rule="evenodd" clip-rule="evenodd" d="M76.6819 26.0422C58.9505 26.9629 43.0994 36.4053 33.9304 51.5087C32.809 53.3559 30.5066 57.9816 30.011 59.3829C29.9468 59.5646 29.693 60.2203 29.4471 60.8402L29 61.9673L30.9045 62.4675C37.0458 64.0807 41.5015 68.4804 43.2838 74.6912C43.9371 76.9678 43.9156 81.1079 43.238 83.5017C42.3719 86.5609 40.827 89.1058 38.4835 91.3327C36.1297 93.5695 33.7865 94.8492 30.6042 95.6355C29.766 95.8428 29.0524 96.0335 29.0184 96.0598C28.8513 96.1879 31.699 102.607 32.8018 104.588C37.0934 112.297 43.1961 118.854 50.5777 123.688C54.6572 126.359 61.4247 129.258 66.4815 130.5C75.2924 132.664 85.0374 132.48 93.5965 129.989C107.513 125.938 119.161 116.357 125.905 103.414C127.078 101.163 129 96.6767 129 96.1895C129 96.0855 128.152 95.7871 127.115 95.5261C123.198 94.5393 120.11 92.4591 117.647 89.1468C113.879 84.0794 113.249 77.0898 116.056 71.4974C118.374 66.8791 122.579 63.4939 127.282 62.458C127.966 62.3073 128.649 62.1076 128.8 62.0137C129.282 61.7151 126.758 55.838 124.549 52.1142C116.765 38.9892 104.049 29.9399 89.2953 27.0272C85.4939 26.2767 80.1713 25.8611 76.6819 26.0422ZM98.4344 45.5398C99.18 46.2431 99.3833 47.2627 99.3847 50.3041L99.386 53.0092L101.963 52.9473L104.541 52.8852L104.656 51.5636C104.842 49.4339 105.608 48.59 107.355 48.59C108.5 48.59 109.381 49.1885 109.832 50.272C110.271 51.3257 110.242 55.4561 109.789 56.4142C109.187 57.6873 108.532 57.8411 103.713 57.8411H99.4423L99.3439 59.5507C99.2311 61.5032 98.8637 62.2472 97.7495 62.778C96.8343 63.2142 96.244 63.2188 95.3589 62.797C94.3211 62.3025 94.0256 61.6769 93.9025 59.7133L93.7922 57.9512L89.1639 57.8411C83.0559 57.6957 83.1704 57.777 83.1601 53.5792C83.1522 50.4167 83.3806 49.6013 84.4517 48.9658C85.2763 48.4768 86.8562 48.4845 87.4401 48.9803C88.2947 49.7059 88.5279 50.2052 88.6372 51.5418L88.7469 52.8852H91.2695H93.7922L93.853 49.6378L93.9135 46.3903L94.6675 45.6334C95.7706 44.5257 97.3185 44.4872 98.4344 45.5398ZM62.9484 45.4103C63.8505 46.1724 64.0659 47.1132 64.0672 50.2971L64.0685 52.9953H66.5624H69.0564L69.1924 52.1693C69.2672 51.7151 69.3295 51.0742 69.3308 50.7449C69.3323 50.3559 69.6043 49.8744 70.1082 49.3682C70.7841 48.6896 71.0208 48.59 71.9561 48.59C72.7884 48.59 73.1791 48.7171 73.6994 49.1568C74.619 49.9336 74.8811 51.0891 74.7699 53.8739C74.6161 57.7157 74.4148 57.8411 68.3992 57.8411H64.1312L64.0128 59.5763C63.8783 61.547 63.5284 62.2556 62.432 62.778C61.5127 63.2161 60.9222 63.219 60.0434 62.7897C58.9091 62.2355 58.5546 61.5355 58.4217 59.5878L58.3023 57.8411H53.9567C47.8108 57.8411 47.7773 57.8173 47.822 53.4838C47.8538 50.4006 48.0907 49.5847 49.1343 48.9658C50.3522 48.2436 52.1711 48.635 52.8816 49.772C53.0431 50.0305 53.2324 50.8367 53.3024 51.5636L53.4294 52.8852L55.8972 52.9475L58.3651 53.0098V50.3869C58.3651 47.0539 58.4829 46.5041 59.3919 45.5912C60.0333 44.9471 60.2808 44.8456 61.2073 44.8456C62.0385 44.8456 62.4303 44.9727 62.9484 45.4103ZM80.7862 59.2041C81.9968 60.0525 82.3169 60.7919 82.4661 63.0877L82.6047 65.2199L95.5157 65.2767C108.046 65.3318 108.445 65.3465 109.046 65.776C109.914 66.3967 110.246 67.5003 109.85 68.4498C109.238 69.9218 110.061 69.8344 95.6781 69.9555L82.6047 70.0657L82.5411 71.8762L82.4775 73.6866L95.5342 73.7485L108.591 73.8101L109.283 74.5053C109.824 75.0487 109.975 75.3885 109.975 76.0641C109.975 76.9749 109.481 77.9442 108.86 78.2519C108.656 78.353 104.936 78.4852 100.592 78.5458L92.6954 78.6559V80.418V82.1801L100.724 82.2902C109.54 82.4112 109.254 82.364 109.85 83.796C110.246 84.7466 109.913 85.8492 109.043 86.4715C108.441 86.9023 108.1 86.9158 97.7651 86.9158H87.1087L86.3922 86.2737L85.6758 85.6316L85.5661 82.1438L85.4564 78.6559H78.9852H72.514L72.4043 82.1438L72.2946 85.6316L71.5782 86.2737L70.8617 86.9158H60.2053C49.8707 86.9158 49.5298 86.9023 48.9272 86.4715C48.0469 85.842 47.724 84.7471 48.1307 83.7695C48.7558 82.2676 48.6148 82.2907 57.1526 82.2869C61.3787 82.285 64.9644 82.2019 65.1208 82.1024C65.3224 81.9737 65.3864 81.4458 65.3401 80.2885L65.275 78.6559L57.1952 78.5458L49.1154 78.4356L48.4755 77.7163C47.4329 76.5442 47.6777 74.8458 48.9985 74.0872C49.3648 73.8769 52.5969 73.7837 62.4233 73.7L75.3657 73.5899L75.4311 72.0833C75.471 71.1621 75.3966 70.456 75.2396 70.2661C75.0242 70.0053 72.9161 69.9555 62.0841 69.9555H49.1856L48.5106 69.2778C47.3796 68.1421 47.6636 66.3047 49.0825 65.576C49.4192 65.4031 53.3383 65.33 62.2552 65.33C71.8357 65.33 75.0134 65.2652 75.2121 65.0657C75.3725 64.9047 75.4754 64.121 75.4754 63.0615C75.4754 61.0611 75.8439 60.0604 76.8438 59.3457C78.086 58.4574 79.6409 58.4016 80.7862 59.2041ZM108.359 90.9479C108.77 91.0926 109.313 91.4906 109.566 91.8327C110 92.4201 110.025 92.7263 110.025 97.3611C110.025 100.986 109.95 102.408 109.738 102.807C109.084 104.033 109.813 103.981 92.3027 104.047L76.1159 104.107L76.1795 105.919L76.2432 107.731L92.4973 107.841C110.392 107.962 109.232 107.861 109.85 109.346C110.234 110.268 109.925 111.372 109.102 112.022C108.549 112.46 108.257 112.466 89.587 112.466C68.4428 112.466 69.9084 112.579 69.2422 110.907C68.9851 110.262 68.8945 109.261 68.8945 107.065V104.096H61.8749H54.8552L54.8504 106.794C54.8467 108.948 54.7631 109.675 54.4374 110.396C53.6095 112.226 51.3562 113.001 49.6664 112.037C47.9997 111.086 47.9536 110.927 47.8775 105.88C47.8045 101.02 47.9016 100.437 48.8998 99.7569C49.4339 99.3928 50.2666 99.3555 59.1877 99.297L68.8945 99.2331V97.3697V95.506H59.1497H49.4047L48.7374 94.9421C47.1977 93.6413 47.7573 91.4829 49.8099 90.8038C49.9909 90.7439 63.0704 90.6928 78.8755 90.69C100.587 90.6862 107.795 90.7494 108.359 90.9479ZM76.1335 97.3782V99.2505H89.5146H102.896V97.3782V95.506H89.5146H76.1335V97.3782Z" fill="white"/>
</svg>
